<svg width="16" height="16" viewBox="0 0 16 16" fill="none" xmlns="http://www.w3.org/2000/svg">
    <g clip-path="url(#clip0_532_1896)">
    <g clip-path="url(#clip1_532_1896)">
    <path fill-rule="evenodd" clip-rule="evenodd" d="M8.41898 7.87732L14.8148 1.48153L14.3957 1.0625L7.99996 7.4583L1.60417 1.0625L1.18514 1.48153L7.58093 7.87732L0.766113 14.6921L1.18514 15.1112L7.99996 8.29634L14.8148 15.1112L15.2338 14.6921L8.41898 7.87732Z" fill="#575757"></path>
    <path d="M14.8148 1.48161L15.0244 1.69112L15.2339 1.48161L15.0244 1.2721L14.8148 1.48161ZM8.41906 7.8774L8.20958 7.66786L8.00004 7.8774L8.20958 8.08688L8.41906 7.8774ZM14.3958 1.06258L14.6053 0.853068L14.3958 0.643555L14.1863 0.853068L14.3958 1.06258ZM8.00004 7.45838L7.79049 7.66786L8.00004 7.8774L8.20958 7.66786L8.00004 7.45838ZM1.60425 1.06258L1.81376 0.853068L1.60425 0.643555L1.39473 0.853068L1.60425 1.06258ZM1.18522 1.48161L0.975709 1.2721L0.766192 1.48161L0.975709 1.69112L1.18522 1.48161ZM7.58101 7.8774L7.79049 8.08688L8.00004 7.8774L7.79049 7.66786L7.58101 7.8774ZM0.766192 14.6922L0.556681 14.4827L0.347168 14.6922L0.556681 14.9017L0.766192 14.6922ZM1.18522 15.1112L0.975709 15.3208L1.18522 15.5303L1.39473 15.3208L1.18522 15.1112ZM8.00004 8.29642L8.20958 8.08688L8.00004 7.8774L7.79049 8.08688L8.00004 8.29642ZM14.8148 15.1112L14.6053 15.3208L14.8148 15.5303L15.0244 15.3208L14.8148 15.1112ZM15.2339 14.6922L15.4434 14.9017L15.6529 14.6922L15.4434 14.4827L15.2339 14.6922ZM14.6053 1.2721L8.20958 7.66786L8.6286 8.08688L15.0244 1.69112L14.6053 1.2721ZM14.1863 1.2721L14.6053 1.69112L15.0244 1.2721L14.6053 0.853068L14.1863 1.2721ZM8.20958 7.66786L14.6053 1.2721L14.1863 0.853068L7.79049 7.24884L8.20958 7.66786ZM1.39473 1.2721L7.79049 7.66786L8.20958 7.24884L1.81376 0.853068L1.39473 1.2721ZM1.39473 1.69112L1.81376 1.2721L1.39473 0.853068L0.975709 1.2721L1.39473 1.69112ZM7.79049 7.66786L1.39473 1.2721L0.975709 1.69112L7.37147 8.08688L7.79049 7.66786ZM0.975709 14.9017L7.79049 8.08688L7.37147 7.66786L0.556681 14.4827L0.975709 14.9017ZM1.39473 14.9017L0.975709 14.4827L0.556681 14.9017L0.975709 15.3208L1.39473 14.9017ZM7.79049 8.08688L0.975709 14.9017L1.39473 15.3208L8.20958 8.50596L7.79049 8.08688ZM15.0244 14.9017L8.20958 8.08688L7.79049 8.50596L14.6053 15.3208L15.0244 14.9017ZM15.0244 14.4827L14.6053 14.9017L15.0244 15.3208L15.4434 14.9017L15.0244 14.4827ZM8.20958 8.08688L15.0244 14.9017L15.4434 14.4827L8.6286 7.66786L8.20958 8.08688Z" fill="#575757"></path>
    </g>
    </g>
    <defs>
    <clipPath id="clip0_532_1896">
    <rect width="16" height="15.41" fill="white" transform="translate(0 0.295044)"></rect>
    </clipPath>
    <clipPath id="clip1_532_1896">
    <rect width="16" height="15.4074" fill="white" transform="translate(0 0.296387)"></rect>
    </clipPath>
    </defs>
</svg>