<svg width="17" height="23" viewBox="0 0 17 23" fill="none" xmlns="http://www.w3.org/2000/svg">
<path fill-rule="evenodd" clip-rule="evenodd" d="M8.50033 0C7.26827 0 6.08667 0.449838 5.21548 1.25056C4.34428 2.05127 3.85485 3.13728 3.85485 4.26966V4.77303H0.764377L0.0113191 15.2C-0.0342615 15.8147 0.0581354 16.4313 0.282771 17.0118C0.507407 17.5923 0.859484 18.1241 1.31714 18.5742C1.77479 19.0243 2.32825 19.3832 2.94314 19.6284C3.55803 19.8737 4.22122 20.0002 4.89152 20H12.1091C12.7786 20.0001 13.4409 19.8739 14.0551 19.6292C14.6693 19.3844 15.2222 19.0264 15.6797 18.5773C16.1372 18.1281 16.4895 17.5974 16.7148 17.018C16.9401 16.4386 17.0335 15.8229 16.9893 15.209L16.2363 4.78202H13.1458V4.26966C13.1458 3.70896 13.0257 3.15375 12.7922 2.63573C12.5587 2.11771 12.2166 1.64703 11.7852 1.25056C11.3538 0.854081 10.8417 0.539579 10.2781 0.325009C9.71446 0.110438 9.11038 0 8.50033 0ZM12.1678 4.77303V4.26966C12.1678 3.37567 11.7814 2.5183 11.0936 1.88616C10.4058 1.25401 9.47301 0.898876 8.50033 0.898876C7.52765 0.898876 6.59481 1.25401 5.90702 1.88616C5.21924 2.5183 4.83284 3.37567 4.83284 4.26966V4.77303H12.1678ZM4.83284 5.67191H12.1678V6.17528C12.1678 7.06927 11.7814 7.92664 11.0936 8.55879C10.4058 9.19093 9.47301 9.54607 8.50033 9.54607C7.52765 9.54607 6.59481 9.19093 5.90702 8.55879C5.21924 7.92664 4.83284 7.06927 4.83284 6.17528V5.67191ZM3.85485 5.67191V6.17528C3.85485 7.30767 4.34428 8.39367 5.21548 9.19439C6.08667 9.99511 7.26827 10.4449 8.50033 10.4449C9.73239 10.4449 10.914 9.99511 11.7852 9.19439C12.6564 8.39367 13.1458 7.30767 13.1458 6.17528V5.67191H15.317L16.0113 15.2629C16.0475 15.7543 15.9734 16.2474 15.7937 16.7114C15.614 17.1754 15.3325 17.6005 14.9666 17.9604C14.6007 18.3203 14.1583 18.6073 13.6667 18.8035C13.1752 18.9997 12.645 19.101 12.1091 19.1011H4.89152C4.3548 19.1022 3.82356 19.0019 3.33087 18.8062C2.83817 18.6105 2.39455 18.3237 2.02762 17.9637C1.66068 17.6037 1.37827 17.1781 1.19797 16.7135C1.01766 16.2489 0.943306 15.7551 0.979536 15.2629L1.68369 5.67191H3.85485Z" fill="currentColor"/>
</svg>
